<svg class="main-svg" xmlns="http://www.w3.org/2000/svg" xmlns:xlink="http://www.w3.org/1999/xlink" width="700" height="500" viewBox="0 0 700 500"><rect x="0" y="0" width="700" height="500" style="fill: rgb(255, 255, 255); fill-opacity: 1;"/><defs id="defs-23c4ca"><g class="clips"><clipPath id="clip23c4caxyplot" class="plotclip"><rect width="540" height="313"/></clipPath><clipPath class="axesclip" id="clip23c4cax"><rect x="80" y="0" width="540" height="500"/></clipPath><clipPath class="axesclip" id="clip23c4cay"><rect x="0" y="100" width="700" height="313"/></clipPath><clipPath class="axesclip" id="clip23c4caxy"><rect x="80" y="100" width="540" height="313"/></clipPath></g><g class="gradients"/></defs><g class="bglayer"><rect class="bg" x="80" y="100" width="540" height="313" style="fill: rgb(229, 236, 246); fill-opacity: 1; stroke-width: 0;"/></g><g class="layer-below"><g class="imagelayer"/><g class="shapelayer"/></g><g class="cartesianlayer"><g class="subplot xy"><g class="layer-subplot"><g class="shapelayer"/><g class="imagelayer"/></g><g class="gridlayer"><g class="x"><path class="xgrid crisp" transform="translate(100,0)" d="M0,100v313" style="stroke: rgb(255, 255, 255); stroke-opacity: 1; stroke-width: 1px;"/><path class="xgrid crisp" transform="translate(120,0)" d="M0,100v313" style="stroke: rgb(255, 255, 255); stroke-opacity: 1; stroke-width: 1px;"/><path class="xgrid crisp" transform="translate(140,0)" d="M0,100v313" style="stroke: rgb(255, 255, 255); stroke-opacity: 1; stroke-width: 1px;"/><path class="xgrid crisp" transform="translate(160,0)" d="M0,100v313" style="stroke: rgb(255, 255, 255); stroke-opacity: 1; stroke-width: 1px;"/><path class="xgrid crisp" transform="translate(180,0)" d="M0,100v313" style="stroke: rgb(255, 255, 255); stroke-opacity: 1; stroke-width: 1px;"/><path class="xgrid crisp" transform="translate(200,0)" d="M0,100v313" style="stroke: rgb(255, 255, 255); stroke-opacity: 1; stroke-width: 1px;"/><path class="xgrid crisp" transform="translate(220,0)" d="M0,100v313" style="stroke: rgb(255, 255, 255); stroke-opacity: 1; stroke-width: 1px;"/><path class="xgrid crisp" transform="translate(240,0)" d="M0,100v313" style="stroke: rgb(255, 255, 255); stroke-opacity: 1; stroke-width: 1px;"/><path class="xgrid crisp" transform="translate(260,0)" d="M0,100v313" style="stroke: rgb(255, 255, 255); stroke-opacity: 1; stroke-width: 1px;"/><path class="xgrid crisp" transform="translate(280,0)" d="M0,100v313" style="stroke: rgb(255, 255, 255); stroke-opacity: 1; stroke-width: 1px;"/><path class="xgrid crisp" transform="translate(300,0)" d="M0,100v313" style="stroke: rgb(255, 255, 255); stroke-opacity: 1; stroke-width: 1px;"/><path class="xgrid crisp" transform="translate(320,0)" d="M0,100v313" style="stroke: rgb(255, 255, 255); stroke-opacity: 1; stroke-width: 1px;"/><path class="xgrid crisp" transform="translate(340,0)" d="M0,100v313" style="stroke: rgb(255, 255, 255); stroke-opacity: 1; stroke-width: 1px;"/><path class="xgrid crisp" transform="translate(360,0)" d="M0,100v313" style="stroke: rgb(255, 255, 255); stroke-opacity: 1; stroke-width: 1px;"/><path class="xgrid crisp" transform="translate(380,0)" d="M0,100v313" style="stroke: rgb(255, 255, 255); stroke-opacity: 1; stroke-width: 1px;"/><path class="xgrid crisp" transform="translate(400,0)" d="M0,100v313" style="stroke: rgb(255, 255, 255); stroke-opacity: 1; stroke-width: 1px;"/><path class="xgrid crisp" transform="translate(420,0)" d="M0,100v313" style="stroke: rgb(255, 255, 255); stroke-opacity: 1; stroke-width: 1px;"/><path class="xgrid crisp" transform="translate(440,0)" d="M0,100v313" style="stroke: rgb(255, 255, 255); stroke-opacity: 1; stroke-width: 1px;"/><path class="xgrid crisp" transform="translate(460,0)" d="M0,100v313" style="stroke: rgb(255, 255, 255); stroke-opacity: 1; stroke-width: 1px;"/><path class="xgrid crisp" transform="translate(480,0)" d="M0,100v313" style="stroke: rgb(255, 255, 255); stroke-opacity: 1; stroke-width: 1px;"/><path class="xgrid crisp" transform="translate(500,0)" d="M0,100v313" style="stroke: rgb(255, 255, 255); stroke-opacity: 1; stroke-width: 1px;"/><path class="xgrid crisp" transform="translate(520,0)" d="M0,100v313" style="stroke: rgb(255, 255, 255); stroke-opacity: 1; stroke-width: 1px;"/><path class="xgrid crisp" transform="translate(540,0)" d="M0,100v313" style="stroke: rgb(255, 255, 255); stroke-opacity: 1; stroke-width: 1px;"/><path class="xgrid crisp" transform="translate(560,0)" d="M0,100v313" style="stroke: rgb(255, 255, 255); stroke-opacity: 1; stroke-width: 1px;"/><path class="xgrid crisp" transform="translate(580,0)" d="M0,100v313" style="stroke: rgb(255, 255, 255); stroke-opacity: 1; stroke-width: 1px;"/><path class="xgrid crisp" transform="translate(600,0)" d="M0,100v313" style="stroke: rgb(255, 255, 255); stroke-opacity: 1; stroke-width: 1px;"/></g><g class="y"><path class="ygrid crisp" transform="translate(0,347.05)" d="M80,0h540" style="stroke: rgb(255, 255, 255); stroke-opacity: 1; stroke-width: 1px;"/><path class="ygrid crisp" transform="translate(0,296.74)" d="M80,0h540" style="stroke: rgb(255, 255, 255); stroke-opacity: 1; stroke-width: 1px;"/><path class="ygrid crisp" transform="translate(0,246.44)" d="M80,0h540" style="stroke: rgb(255, 255, 255); stroke-opacity: 1; stroke-width: 1px;"/><path class="ygrid crisp" transform="translate(0,196.14)" d="M80,0h540" style="stroke: rgb(255, 255, 255); stroke-opacity: 1; stroke-width: 1px;"/><path class="ygrid crisp" transform="translate(0,145.82999999999998)" d="M80,0h540" style="stroke: rgb(255, 255, 255); stroke-opacity: 1; stroke-width: 1px;"/></g></g><g class="zerolinelayer"><path class="yzl zl crisp" transform="translate(0,397.35)" d="M80,0h540" style="stroke: rgb(255, 255, 255); stroke-opacity: 1; stroke-width: 2px;"/></g><path class="xlines-below"/><path class="ylines-below"/><g class="overlines-below"/><g class="xaxislayer-below"/><g class="yaxislayer-below"/><g class="overaxes-below"/><g class="plot" transform="translate(80, 100)" clip-path="url('#clip23c4caxyplot')"><g class="scatterlayer mlayer"><g class="trace scatter trace984c56" style="stroke-miterlimit: 2; opacity: 1;"><g class="fills"/><g class="errorbars"/><g class="lines"><path class="js-line" d="M0,297.35L260,297.35L266.67,296.34L273.33,295.34L280,293.33L333.33,293.33L340,287.29L346.67,287.29L353.33,273.2L360,273.2L366.67,271.19L373.33,266.16L380,266.16L386.67,259.12L393.33,250.06L400,229.94L406.67,217.87L413.33,210.83L420,197.75L426.67,191.71L433.33,177.63L446.67,154.49L453.33,134.37L460,121.29L466.67,106.2L473.33,101.17L480,89.09L486.67,77.02L493.33,74L500,69.98L506.67,58.91L520,45.83L526.67,30.74L533.33,17.66L540,15.65" style="vector-effect: non-scaling-stroke; fill: none; stroke: rgb(99, 110, 250); stroke-opacity: 1; stroke-width: 2px; opacity: 1;"/></g><g class="points"/><g class="text"/></g></g></g><g class="overplot"/><path class="xlines-above crisp" d="M0,0" style="fill: none;"/><path class="ylines-above crisp" d="M0,0" style="fill: none;"/><g class="overlines-above"/><g class="xaxislayer-above"><g class="xtick"><text text-anchor="start" x="0" y="426" transform="translate(80,0) rotate(90,0,420)" style="font-family: 'Open Sans', verdana, arial, sans-serif; font-size: 12px; fill: rgb(42, 63, 95); fill-opacity: 1; white-space: pre;">1/22/20</text></g><g class="xtick"><text text-anchor="start" x="0" y="426" transform="translate(100,0) rotate(90,0,420)" style="font-family: 'Open Sans', verdana, arial, sans-serif; font-size: 12px; fill: rgb(42, 63, 95); fill-opacity: 1; white-space: pre;">1/25/20</text></g><g class="xtick"><text text-anchor="start" x="0" y="426" transform="translate(120,0) rotate(90,0,420)" style="font-family: 'Open Sans', verdana, arial, sans-serif; font-size: 12px; fill: rgb(42, 63, 95); fill-opacity: 1; white-space: pre;">1/28/20</text></g><g class="xtick"><text text-anchor="start" x="0" y="426" transform="translate(140,0) rotate(90,0,420)" style="font-family: 'Open Sans', verdana, arial, sans-serif; font-size: 12px; fill: rgb(42, 63, 95); fill-opacity: 1; white-space: pre;">1/31/20</text></g><g class="xtick"><text text-anchor="start" x="0" y="426" transform="translate(160,0) rotate(90,0,420)" style="font-family: 'Open Sans', verdana, arial, sans-serif; font-size: 12px; fill: rgb(42, 63, 95); fill-opacity: 1; white-space: pre;">2/3/20</text></g><g class="xtick"><text text-anchor="start" x="0" y="426" transform="translate(180,0) rotate(90,0,420)" style="font-family: 'Open Sans', verdana, arial, sans-serif; font-size: 12px; fill: rgb(42, 63, 95); fill-opacity: 1; white-space: pre;">2/6/20</text></g><g class="xtick"><text text-anchor="start" x="0" y="426" transform="translate(200,0) rotate(90,0,420)" style="font-family: 'Open Sans', verdana, arial, sans-serif; font-size: 12px; fill: rgb(42, 63, 95); fill-opacity: 1; white-space: pre;">2/9/20</text></g><g class="xtick"><text text-anchor="start" x="0" y="426" transform="translate(220,0) rotate(90,0,420)" style="font-family: 'Open Sans', verdana, arial, sans-serif; font-size: 12px; fill: rgb(42, 63, 95); fill-opacity: 1; white-space: pre;">2/12/20</text></g><g class="xtick"><text text-anchor="start" x="0" y="426" transform="translate(240,0) rotate(90,0,420)" style="font-family: 'Open Sans', verdana, arial, sans-serif; font-size: 12px; fill: rgb(42, 63, 95); fill-opacity: 1; white-space: pre;">2/15/20</text></g><g class="xtick"><text text-anchor="start" x="0" y="426" transform="translate(260,0) rotate(90,0,420)" style="font-family: 'Open Sans', verdana, arial, sans-serif; font-size: 12px; fill: rgb(42, 63, 95); fill-opacity: 1; white-space: pre;">2/18/20</text></g><g class="xtick"><text text-anchor="start" x="0" y="426" transform="translate(280,0) rotate(90,0,420)" style="font-family: 'Open Sans', verdana, arial, sans-serif; font-size: 12px; fill: rgb(42, 63, 95); fill-opacity: 1; white-space: pre;">2/21/20</text></g><g class="xtick"><text text-anchor="start" x="0" y="426" transform="translate(300,0) rotate(90,0,420)" style="font-family: 'Open Sans', verdana, arial, sans-serif; font-size: 12px; fill: rgb(42, 63, 95); fill-opacity: 1; white-space: pre;">2/24/20</text></g><g class="xtick"><text text-anchor="start" x="0" y="426" transform="translate(320,0) rotate(90,0,420)" style="font-family: 'Open Sans', verdana, arial, sans-serif; font-size: 12px; fill: rgb(42, 63, 95); fill-opacity: 1; white-space: pre;">2/27/20</text></g><g class="xtick"><text text-anchor="start" x="0" y="426" transform="translate(340,0) rotate(90,0,420)" style="font-family: 'Open Sans', verdana, arial, sans-serif; font-size: 12px; fill: rgb(42, 63, 95); fill-opacity: 1; white-space: pre;">3/1/20</text></g><g class="xtick"><text text-anchor="start" x="0" y="426" transform="translate(360,0) rotate(90,0,420)" style="font-family: 'Open Sans', verdana, arial, sans-serif; font-size: 12px; fill: rgb(42, 63, 95); fill-opacity: 1; white-space: pre;">3/4/20</text></g><g class="xtick"><text text-anchor="start" x="0" y="426" transform="translate(380,0) rotate(90,0,420)" style="font-family: 'Open Sans', verdana, arial, sans-serif; font-size: 12px; fill: rgb(42, 63, 95); fill-opacity: 1; white-space: pre;">3/7/20</text></g><g class="xtick"><text text-anchor="start" x="0" y="426" transform="translate(400,0) rotate(90,0,420)" style="font-family: 'Open Sans', verdana, arial, sans-serif; font-size: 12px; fill: rgb(42, 63, 95); fill-opacity: 1; white-space: pre;">3/10/20</text></g><g class="xtick"><text text-anchor="start" x="0" y="426" transform="translate(420,0) rotate(90,0,420)" style="font-family: 'Open Sans', verdana, arial, sans-serif; font-size: 12px; fill: rgb(42, 63, 95); fill-opacity: 1; white-space: pre;">3/13/20</text></g><g class="xtick"><text text-anchor="start" x="0" y="426" transform="translate(440,0) rotate(90,0,420)" style="font-family: 'Open Sans', verdana, arial, sans-serif; font-size: 12px; fill: rgb(42, 63, 95); fill-opacity: 1; white-space: pre;">3/16/20</text></g><g class="xtick"><text text-anchor="start" x="0" y="426" transform="translate(460,0) rotate(90,0,420)" style="font-family: 'Open Sans', verdana, arial, sans-serif; font-size: 12px; fill: rgb(42, 63, 95); fill-opacity: 1; white-space: pre;">3/19/20</text></g><g class="xtick"><text text-anchor="start" x="0" y="426" transform="translate(480,0) rotate(90,0,420)" style="font-family: 'Open Sans', verdana, arial, sans-serif; font-size: 12px; fill: rgb(42, 63, 95); fill-opacity: 1; white-space: pre;">3/22/20</text></g><g class="xtick"><text text-anchor="start" x="0" y="426" transform="translate(500,0) rotate(90,0,420)" style="font-family: 'Open Sans', verdana, arial, sans-serif; font-size: 12px; fill: rgb(42, 63, 95); fill-opacity: 1; white-space: pre;">3/25/20</text></g><g class="xtick"><text text-anchor="start" x="0" y="426" transform="translate(520,0) rotate(90,0,420)" style="font-family: 'Open Sans', verdana, arial, sans-serif; font-size: 12px; fill: rgb(42, 63, 95); fill-opacity: 1; white-space: pre;">3/28/20</text></g><g class="xtick"><text text-anchor="start" x="0" y="426" transform="translate(540,0) rotate(90,0,420)" style="font-family: 'Open Sans', verdana, arial, sans-serif; font-size: 12px; fill: rgb(42, 63, 95); fill-opacity: 1; white-space: pre;">3/31/20</text></g><g class="xtick"><text text-anchor="start" x="0" y="426" transform="translate(560,0) rotate(90,0,420)" style="font-family: 'Open Sans', verdana, arial, sans-serif; font-size: 12px; fill: rgb(42, 63, 95); fill-opacity: 1; white-space: pre;">4/3/20</text></g><g class="xtick"><text text-anchor="start" x="0" y="426" transform="translate(580,0) rotate(90,0,420)" style="font-family: 'Open Sans', verdana, arial, sans-serif; font-size: 12px; fill: rgb(42, 63, 95); fill-opacity: 1; white-space: pre;">4/6/20</text></g><g class="xtick"><text text-anchor="start" x="0" y="426" transform="translate(600,0) rotate(90,0,420)" style="font-family: 'Open Sans', verdana, arial, sans-serif; font-size: 12px; fill: rgb(42, 63, 95); fill-opacity: 1; white-space: pre;">4/9/20</text></g><g class="xtick"><text text-anchor="start" x="0" y="426" transform="translate(620,0) rotate(90,0,420)" style="font-family: 'Open Sans', verdana, arial, sans-serif; font-size: 12px; fill: rgb(42, 63, 95); fill-opacity: 1; white-space: pre;">4/12/20</text></g></g><g class="yaxislayer-above"><g class="ytick"><text text-anchor="end" x="79" y="4.199999999999999" transform="translate(0,397.35)" style="font-family: 'Open Sans', verdana, arial, sans-serif; font-size: 12px; fill: rgb(42, 63, 95); fill-opacity: 1; white-space: pre;">0</text></g><g class="ytick"><text text-anchor="end" x="79" y="4.199999999999999" transform="translate(0,347.05)" style="font-family: 'Open Sans', verdana, arial, sans-serif; font-size: 12px; fill: rgb(42, 63, 95); fill-opacity: 1; white-space: pre;">50</text></g><g class="ytick"><text text-anchor="end" x="79" y="4.199999999999999" transform="translate(0,296.74)" style="font-family: 'Open Sans', verdana, arial, sans-serif; font-size: 12px; fill: rgb(42, 63, 95); fill-opacity: 1; white-space: pre;">100</text></g><g class="ytick"><text text-anchor="end" x="79" y="4.199999999999999" transform="translate(0,246.44)" style="font-family: 'Open Sans', verdana, arial, sans-serif; font-size: 12px; fill: rgb(42, 63, 95); fill-opacity: 1; white-space: pre;">150</text></g><g class="ytick"><text text-anchor="end" x="79" y="4.199999999999999" transform="translate(0,196.14)" style="font-family: 'Open Sans', verdana, arial, sans-serif; font-size: 12px; fill: rgb(42, 63, 95); fill-opacity: 1; white-space: pre;">200</text></g><g class="ytick"><text text-anchor="end" x="79" y="4.199999999999999" transform="translate(0,145.82999999999998)" style="font-family: 'Open Sans', verdana, arial, sans-serif; font-size: 12px; fill: rgb(42, 63, 95); fill-opacity: 1; white-space: pre;">250</text></g></g><g class="overaxes-above"/></g></g><g class="polarlayer"/><g class="ternarylayer"/><g class="geolayer"/><g class="funnelarealayer"/><g class="pielayer"/><g class="treemaplayer"/><g class="sunburstlayer"/><g class="glimages"/><defs id="topdefs-23c4ca"><g class="clips"/></defs><g class="layer-above"><g class="imagelayer"/><g class="shapelayer"/></g><g class="infolayer"><g class="g-gtitle"><text class="gtitle" x="35" y="50" text-anchor="start" dy="0em" style="font-family: 'Open Sans', verdana, arial, sans-serif; font-size: 17px; fill: rgb(42, 63, 95); opacity: 1; font-weight: normal; white-space: pre;">Senegal</text></g><g class="g-xtitle"><text class="xtitle" x="350" y="488.253125" text-anchor="middle" style="font-family: 'Open Sans', verdana, arial, sans-serif; font-size: 14px; fill: rgb(42, 63, 95); opacity: 1; font-weight: normal; white-space: pre;">x</text></g><g class="g-ytitle"><text class="ytitle" transform="rotate(-90,33.60625,256.5)" x="33.60625" y="256.5" text-anchor="middle" style="font-family: 'Open Sans', verdana, arial, sans-serif; font-size: 14px; fill: rgb(42, 63, 95); opacity: 1; font-weight: normal; white-space: pre;">y</text></g></g></svg>